# xmcd
#
# Track frame offsets:
# 150
# 14155
# 25892
# 37922
# 51222
# 64047
# 77410
# 90745
# 102695
# 117490
# 129812
# 141050
#
# Disc length: 2056 seconds
#
# Revision: 1
# Processed by: cddbd v1.5.1PL0 Copyright (c) Steve Scherf et al.
# Submitted via: CedeCatalogueitor 2.6.0.6 http://personales.ya.com/cdcatalogueitor
#
DISCID=9c08060c
DTITLE=Sam And Dave - The Best Of Sam And Dave
DYEAR=1900
DGENRE=
TTITLE0=Don't Pull Your Love
TTITLE1=Can't You Find Another Way (Of Doing It, Baby)
TTITLE2=Hold On I'm Comin'
TTITLE3=I Thank You
TTITLE4=ISaid I Wasn't Gonna Tell Nobody
TTITLE5=Soothe Me
TTITLE6=Soul Man
TTITLE7=Soul Sister, Brown Sugar
TTITLE8=When Something Is Wrong With My Baby
TTITLE9=You Don't Know Like I Know
TTITLE10=You Don't Know What You Mean To Me
TTITLE11=You Got Me Hummin'
EXTD=
EXTT0=
EXTT1=
EXTT2=
EXTT3=
EXTT4=
EXTT5=
EXTT6=
EXTT7=
EXTT8=
EXTT9=
EXTT10=
EXTT11=
PLAYORDER=
